<svg width="1200pt" height="1200pt" version="1.1" viewBox="0 0 1200 1200" xmlns="http://www.w3.org/2000/svg">
 <path d="m887.22 800h52.781c26.512-0.03125 51.93-10.578 70.676-29.324 18.746-18.746 29.293-44.164 29.324-70.676v-120c0-15.914-6.3203-31.176-17.574-42.426-11.25-11.254-26.512-17.574-42.426-17.574h-63.82l-4.1797 40h48c10.609 0 20.781 4.2148 28.285 11.715 7.5 7.5039 11.715 17.676 11.715 28.285v100c0 15.914-6.3203 31.176-17.574 42.426-11.25 11.254-26.512 17.574-42.426 17.574h-48.641z"/>
 <path d="m463.88 1e3h272.26c24.754 0.054688 48.645-9.0938 67.023-25.672 18.383-16.578 29.945-39.398 32.438-64.027l44.398-428.3c0.41406-5.6055-1.4961-11.137-5.2773-15.293-3.7812-4.1602-9.1016-6.5859-14.723-6.707h-520c-5.6289 0.0625-10.98 2.4727-14.754 6.6484-3.7773 4.1797-5.6328 9.7422-5.125 15.352l44.301 428.22c2.4688 24.645 14.02 47.488 32.402 64.086 18.387 16.594 42.289 25.754 67.055 25.695zm222-325.86c-4.9062-5.082-6.7695-12.371-4.9023-19.184 1.8672-6.8125 7.1914-12.133 14-14 6.8125-1.8672 14.102-0.003906 19.184 4.9023l60 60c3.75 3.75 5.8555 8.8359 5.8555 14.141s-2.1055 10.391-5.8555 14.141l-60 60c-5.082 4.9062-12.371 6.7695-19.184 4.9023-6.8086-1.8672-12.133-7.1875-14-14-1.8672-6.8125-0.003906-14.102 4.9023-19.184l45.84-45.859zm-124.82 99.539 40-120c2.2578-6.7891 7.9688-11.855 14.977-13.293 7.0039-1.4414 14.25 0.96875 19 6.3203 4.7461 5.3477 6.2812 12.824 4.0234 19.613l-40 120c-2.2578 6.7891-7.9648 11.855-14.973 13.293-7.0078 1.4414-14.25-0.96875-19-6.3203-4.75-5.3477-6.2852-12.824-4.0273-19.613zm-135.18-67.82 60-60c5.082-4.9062 12.371-6.7695 19.184-4.9023 6.8125 1.8672 12.133 7.1875 14 14s0.003906 14.102-4.9023 19.184l-45.879 45.859 45.859 45.859c3.8594 3.7266 6.0586 8.8477 6.1055 14.211 0.046875 5.3672-2.0664 10.523-5.8594 14.316s-8.9492 5.9062-14.316 5.8594c-5.3633-0.046875-10.484-2.2461-14.211-6.1055l-60-60c-3.75-3.75-5.8555-8.8359-5.8555-14.141s2.1055-10.391 5.8555-14.141z"/>
 <path d="m948.1 300.18c-7.1836-0.25-14.039-3.0703-19.316-7.9492-5.2773-4.8789-8.6289-11.488-9.4453-18.629-5.7383-55.391-29.078-107.48-66.594-148.63-37.516-41.148-87.234-69.191-141.86-80.012-54.621-10.816-111.28-3.8438-161.64 19.898-50.371 23.742-91.805 63.004-118.22 112.02-3.4844 6.4297-9.1836 11.375-16.043 13.918-6.8555 2.543-14.402 2.5078-21.238-0.097656-23.148-9.4844-48.379-12.742-73.18-9.4375-31.094 4.2773-59.84 18.914-81.586 41.551s-35.223 51.945-38.254 83.188c-1.3906 14.426-0.62891 28.977 2.2617 43.18 1.5 7.707-0.042969 15.695-4.3047 22.289-4.2617 6.5898-10.914 11.277-18.555 13.07-43.102 9.8672-81.059 35.254-106.64 71.316-25.582 36.059-36.996 80.273-32.066 124.21 4.9297 43.938 25.855 84.523 58.793 114.02s75.578 45.84 119.79 45.91h86.559l-26.238-253.82c-1.4297-16.828 4.1758-33.492 15.484-46.035 11.309-12.539 27.312-19.836 44.195-20.145h520c15.906-0.070312 31.176 6.2383 42.391 17.516 11.219 11.277 17.445 26.578 17.289 42.484h60.32c26.512 0.03125 51.93 10.578 70.676 29.324 18.746 18.746 29.293 44.164 29.324 70.676v109.18c34.422-28.34 59.402-66.484 71.617-109.36 12.215-42.879 11.09-88.465-3.2266-130.69-14.316-42.227-41.148-79.09-76.926-105.7-35.777-26.605-78.805-41.691-123.36-43.25z"/>
 <path d="m960 700v-100h-52l-12.422 120h44.422c5.3047 0 10.391-2.1055 14.141-5.8594 3.7539-3.75 5.8594-8.8359 5.8594-14.141z"/>
 <path d="m380 1160h440c6.2891-0.019531 12.211-2.9805 16-8l24-32h-520l24 32c3.7891 5.0195 9.7109 7.9805 16 8z"/>
 <path d="m240 1060c0 5.3047 2.1055 10.391 5.8594 14.141 3.75 3.7539 8.8359 5.8594 14.141 5.8594h680c7.1445 0 13.746-3.8125 17.32-10 3.5742-6.1875 3.5742-13.812 0-20-3.5742-6.1875-10.176-10-17.32-10h-680c-5.3047 0-10.391 2.1055-14.141 5.8594-3.7539 3.75-5.8594 8.8359-5.8594 14.141z"/>
</svg>
