<svg width="1200pt" height="1200pt" version="1.1" viewBox="0 0 1200 1200" xmlns="http://www.w3.org/2000/svg">
 <path d="m517.6 960.6-64.574-10.309c-11.312 51.258-22.766 102.8-33.934 153.63-14.543-2.2891-29.234-3.5312-43.957-3.7227-16.465 0.85938-18.469-6.4414-15.895-19.758 9.4492-49.684 18.039-100.23 28.637-149.05l0.003906-0.003906c4.2812-16.223 1.4727-33.504-7.7344-47.535-36.551-59.551-57.48-127.37-60.852-197.16-3.418-52.414-11.809-104.38-25.055-155.21-8.2266-22.223-21.512-42.223-38.805-58.418-43.652-48.273-78.191-104.06-101.95-164.66-4.7656-9.9023-12.461-18.102-22.047-23.48-35.367-21.191-71.59-40.664-107.1-61.711h-0.003906c-8.8125-6.2148-16.969-13.316-24.34-21.191l3.7227-7.7305 74.598 10.453c-12.027-10.738-21.047-17.613-27.922-26.203-6.8711-8.5898-12.168-15.895-18.324-24.199l3.5781-4.4375 46.676 6.1562c8.7305 0.67578 17.395 2.0156 25.918 4.0117 28.637 8.3047 42.953-2.2891 55.84-28.637 12.887-26.348 44.672-37.656 72.305-45.391 74.023-20.617 139.32 1.8633 200.45 42.953 65.578 44.102 102.09 109.82 136.31 177.4 23.137 47.754 57.355 89.285 99.797 121.13 40.805 30.066 80.609 61.426 122.56 93.785v-0.003907c1.0625-17.383 4.1367-34.582 9.1641-51.258 15.406-39.914 34.586-78.27 57.273-114.54 18.785-23.406 42.18-42.703 68.727-56.699 26.488-16.035 59.707 10.738 56.27 42.953-1.8633 16.324-5.5859 32.504-7.875 45.102 19.043-11.312 38.801-24.914 60.277-35.223 25.773-12.457 46.105-2.0039 51.117 26.059 2.3945 19.004 3.7773 38.121 4.1523 57.273 7.8242-4.3164 15.902-8.1406 24.199-11.453 11.184-4.0508 23.312-4.7148 34.875-1.9141 11.559 2.8008 22.039 8.9453 30.129 17.664 23.051 21.332 15.465 48.109 10.309 72.449-7.7305 36.941-32.504 64.859-58.273 90.922-31.355 31.785-62.426 64-96.359 92.926-42.953 36.367-88.199 69.301-132.3 104.09-15.895 12.602-31.5 25.629-46.391 39.52v-0.007812c-3.0859 4.0898-4.0898 9.3828-2.7227 14.32 18.578 49.789 28.598 102.36 29.641 155.49 2.1133 23.109 5.4102 46.098 9.8789 68.871-16.832-8.8008-33.004-18.801-48.395-29.926-52.547-45.246-114.54-73.738-174.54-107.24-7.9922-2.7148-16.609-3.0117-24.77-0.85938-8.8828 3.1094-17.977 5.5977-27.203 7.4453-24.484 0-29.637 15.176-32.645 35.078-6.4414 41.379-13.461 82.617-21.621 123.57-1.0039 4.582-10.883 9.4492-17.184 10.594-14.316 2.5781-30.211 3.293-45.246 4.4375-15.035 1.1445-19.617-5.5859-17.754-18.184 2.8633-20.617 6.4414-41.234 10.594-61.566 5.875-25.77 12.316-51.832 18.758-80.609zm329.32-127.43c22.48-18.184 42.953-36.512 64.719-51.832 87.113-60.113 166.42-130.81 236.11-210.48 20.188-21.184 33.727-47.812 38.945-76.602 4.1523-28.637-4.4375-48.395-28.637-57.273-12.398-3.0938-25.406-2.7383-37.617 1.0195-12.215 3.7617-23.168 10.785-31.68 20.316-10.883 17.469-21.621 35.223-33.219 52.262-28.637 42.953-57.273 84.906-85.91 127.29v-0.003906c-2.4062 2.8086-5.1445 5.3086-8.1602 7.4453l-5.5859-2.4336c1.8984-7.4258 4.5859-14.625 8.0195-21.477 32.645-50.398 67.008-100.23 98.508-151.05 17.184-27.777 28.637-58.273 17.324-92.352v-0.003906c-1.4609-7.5352-6.5156-13.883-13.539-16.992-7.0195-3.1094-15.117-2.5938-21.684 1.3867-39.004 14.566-68.805 46.754-80.324 86.77-7.5898 25.914-17.184 51.117-26.918 76.172-11.742 29.781-24.484 59.133-36.797 88.629l-7.0156-1.2891c0.21094-9.6602 1.5078-19.266 3.8672-28.637 16.035-44.242 34.078-87.914 49.254-132.59 11.543-34.406 21.105-69.449 28.637-104.95 1.332-11.785-2.4766-23.578-10.453-32.355-8.8398-5.8359-19.992-6.9102-29.781-2.8633-20.172 9.6523-38.414 22.895-53.836 39.086-33.086 39.52-56.781 86.027-69.301 136.02-4.5547 12.852-5.5352 26.695-2.8359 40.062 2.6992 13.363 8.9727 25.746 18.156 35.824 6.2109 9.0664 11.035 19.004 14.32 29.492l-7.4453 3.7227c-2.7188-4.582-5.2969-9.4492-8.4492-14.316-8.3242-14.621-18.266-28.262-29.641-40.664-29.926-26.488-61.137-51.547-93.066-75.457-53.551-40.09-103.23-82.617-134.73-143.18-19.758-38.23-42.953-74.883-66.293-110.96-35.367-53.523-88.516-92.828-150.05-110.96-21.371-7.7617-44.086-11.141-66.793-9.9336-22.703 1.2031-44.934 6.9688-65.363 16.949-16.773 7.207-31.52 18.414-42.957 32.645-29.926 42.953-32.074 92.781-18.613 142.04 17.121 62.273 48.941 119.53 92.781 166.95 30.355 33.359 58.848 67.727 66.293 113.69 5.7266 36.082 9.7344 72.449 12.602 108.96 5.7266 74.312 20.047 145.9 62.285 209.04 19.277 32.664 52.156 54.984 89.629 60.852 36.312 2.8633 72.793 2.8633 109.11 0 17.488-1.9961 34.809-5.25 51.832-9.7383v-5.5859l-22.766-11.883v0.003906c-17.965-7.8633-35.293-17.105-51.832-27.637-71.59-54.266-135.45-114.54-164.52-203.18v0.003907c-13.992-44.047-18.145-90.625-12.172-136.45 5.8711-49.828 39.09-83.473 77.746-111.54l0.003906 0.003906c10.309-6.5312 22.391-9.6914 34.574-9.0508 12.184 0.64062 23.867 5.0547 33.434 12.629 3.7305 2.875 7.707 5.4141 11.887 7.5898 47.941 25.711 90.133 60.938 123.99 103.52 62.715 78.465 126.86 157.5 160.22 254.14h0.003906c4.0508 10.027 8.7344 19.781 14.031 29.211zm33.504 219.93c-5.5859-59.422-3.293-113.83-23.34-163.66-27.633-68.582-54.695-137.6-96.219-200.45-53.551-80.754-112.68-155.78-189.86-214.77-27.633-21.047-59.562-42.953-94.645-23.48h0.007812c-22.984 13.629-42.262 32.711-56.129 55.555-26.773 42.953-22.336 91.492-14.316 138.31 14.316 79.609 63.859 137.88 119.7 192.43 36.797 35.938 83.902 53.551 127.43 77.605 54.84 30.496 109.54 61.281 163.51 93.066 20.906 12.312 39.52 27.777 64.148 45.391zm-303.11-92.211c-40.805-6.4414-41.664-6.7305-52.117 28.637-6.8711 23.195-11.453 46.965-16.035 70.59-2.1484 11.453-6.7305 30.211-2.1484 33.359 11.988 5.6875 25.367 7.7773 38.516 6.0156 5.0117 0 12.887-9.7344 14.316-15.895 6.3008-40.09 11.598-80.754 17.469-122.71zm-207.47 120.85c42.953 6.8711 40.09 10.023 47.824-31.07 4.1523-22.48 7.5898-45.102 13.031-67.297 9.8789-39.805 10.453-39.66-22.051-63.715-0.85938 0-2.4336 0-5.0117-0.85938-11.359 54.312-22.625 108.62-33.793 162.94zm-231.24-810.12v-94.5l-74.883-5.8672c19.328 18.039 39.23 28.637 47.824 55.984l-78.609-16.184v2.0039z"/>
 <path d="m268.46 130.44c13.973 1.6367 27 7.8945 37.012 17.777 10.012 9.8828 16.438 22.824 18.254 36.773-0.55469 11.891-5.7891 23.078-14.559 31.121-8.7734 8.0469-20.367 12.301-32.262 11.836-21.332 0-51.402-28.637-51.977-48.969-0.85547-29.066 16.039-48.395 43.531-48.539zm7.1602 82.473c7.8477 0.55469 15.598-2.0039 21.574-7.1211 5.9766-5.1211 9.6953-12.387 10.355-20.227 0-18.184-20.332-41.379-35.652-41.379-8.9141 0.14844-17.395 3.8711-23.531 10.336-6.1406 6.4609-9.4258 15.117-9.1172 24.027 1.5039 8.9023 5.8672 17.074 12.43 23.273 6.5625 6.2031 14.965 10.094 23.941 11.09z"/>
 <path d="m913.35 365.54c9.7344-6.7305 15.75-14.316 21.621-14.316s14.316 10.883 12.457 14.316c-3.4961 7.8477-8.3398 15.02-14.32 21.188z"/>
 <path d="m884.71 479.23c-8.4492-11.742-15.895-17.754-16.324-24.199-0.42969-6.4414 9.3086-14.316 14.316-13.602h0.003907c6.9219 1.9883 12.328 7.3984 14.316 14.32 1.0039 4.8672-5.7266 11.598-12.312 23.48z"/>
 <path d="m982.79 540.79c-8.0195-10.453-16.895-17.184-16.324-22.766 0.57422-5.5859 10.453-10.883 16.18-16.324 5.1562 5.7266 13.172 11.023 14.316 17.469 1.1484 6.4453-7.1562 11.457-14.172 21.621z"/>
 <path d="m986.23 467.63 21.477-16.035c5.6914 6.4492 10.508 13.621 14.32 21.332 0.85938 2.1484-9.5938 12.312-13.172 11.598-6.5898-1.5742-12.031-8.5898-22.625-16.895z"/>
 <path d="m1042.9 452.31c-8.1602-12.312-15.32-18.613-15.605-25.199-0.28516-6.5859 8.4492-10.309 13.172-15.465 5.1562 5.5859 13.172 10.594 14.316 16.895 1.1484 6.3008-5.2969 11.887-11.883 23.77z"/>
 <path d="m902.9 431.83c-3.7227-6.3008-11.168-13.172-10.309-18.898 0.85938-5.7266 9.0195-12.312 14.316-18.328 4.582 4.582 13.461 9.4492 13.172 14.316l0.003906 0.003906c-1.9961 8.3359-5.3828 16.273-10.023 23.48z"/>
 <path d="m1122.4 501.42c9.1641-5.7266 15.895-12.742 19.473-11.453 6.1562 2.4336 14.316 9.8789 14.316 15.465 0 5.5859-8.5898 11.023-13.461 16.465z"/>
 <path d="m863.67 530.48c-5.957-7.6172-10.777-16.055-14.316-25.055 0-3.293 10.453-12.457 11.742-11.598h-0.003906c7.168 4.0469 13.184 9.8633 17.469 16.895 1.2891 2.2891-7.0156 9.5938-14.891 19.758z"/>
 <path d="m1102.5 568.86c-10.309 7.1602-17.898 15.176-20.477 14.316h0.003906c-6.6016-3.9805-11.652-10.09-14.32-17.324-1.0039-2.4336 8.7344-12.602 11.453-11.883h0.003906c8.457 3.8047 16.32 8.8203 23.336 14.891z"/>
 <path d="m1017.9 662.64c-7.4453-9.8789-14.316-15.32-15.176-21.477s7.1602-10.164 11.168-15.32c4.7266 5.4414 11.598 10.023 14.316 16.324 0.57031 4.0078-5.2969 10.309-10.309 20.473z"/>
 <path d="m1125.5 534.64-15.32 15.176c-4.8672-5.1562-14.316-11.023-13.316-15.465 1.0039-4.4375 9.3086-10.594 14.316-15.895z"/>
 <path d="m960.03 586.61c-5.8438-6.9141-10.664-14.629-14.316-22.91-0.85938-3.293 5.8711-8.3047 9.1641-12.742 5.5938 4.6055 10.426 10.066 14.316 16.18 0.42969 3.0078-4.4375 8.875-9.1641 19.473z"/>
 <path d="m1054.4 626.42c-6.2969-6.5547-11.82-13.809-16.469-21.621 0-1.5742 9.0195-11.168 11.453-10.309h0.003906c5.9961 2.5938 10.801 7.3477 13.457 13.316 1.2891 3.1484-3.293 9.0195-8.4453 18.613z"/>
 <path d="m556.83 618.68c32.645 0.85938 78.32 31.355 85.91 55.27h-0.003907c0.83594 10.141-0.28125 20.348-3.293 30.066-9.3086-2.5781-22.191-2.1484-27.062-8.3047-19.613-23.48-35.938-49.109-55.551-77.031zm28.637 16.754c11.023 25.059 19.328 46.246 44.102 55.699 0.42578-19.332-9.7383-33.078-44.82-55.699z"/>
 <path d="m546.09 484.52c28.637 20.906 63.574 24.629 74.168 60.707 1.4336 5.1562 2.0039 14.316 0 16.035v0.003906c-5.75 3.2266-12.523 4.0977-18.902 2.4336-31.07-7.4453-54.406-39.09-55.266-79.18zm54.266 69.156 5.0117-5.4414c-9.8789-22.91-24.484-33.934-47.395-31.215z"/>
 <path d="m688.13 665.36c-8.7852-4.7461-17.039-10.41-24.629-16.898-12.27-12.504-23.473-26.012-33.504-40.375-2.2109-5.2383-1.5586-11.246 1.7188-15.895 4.5234-3.0273 10.238-3.668 15.32-1.7188 22.051 11.023 46.535 19.188 58.562 43.957 7.0156 15.035 0.57031 30.93-17.469 30.93zm-40.52-63.43-7.1602 8.4492c13.316 12.172 26.344 24.629 40.234 36.227 2.8633 2.2891 9.1641 0 14.316 1.0039-1.0039-4.8672 0-11.883-3.5781-14.316-14.461-11.891-29.352-21.77-43.812-32.078z"/>
 <path d="m511.87 610.95c-7.4453 7.7305-12.027 16.609-16.754 16.609h0.003906c-8.918 0.60547-17.668-2.625-24.055-8.8789-9.4336-16.254-17.066-33.492-22.766-51.402-0.93359-6.2422 1.5195-12.512 6.4414-16.465 7.3008-2.2891 20.477-3.0078 23.48 1.1445 12.457 18.328 21.91 38.09 33.648 58.992zm-43.812-47.965c-2.3789 10.082-1.4531 20.664 2.6484 30.18 4.0977 9.5156 11.152 17.457 20.117 22.652 3.4375-23.195-13.602-36.367-22.766-52.832z"/>
 <path d="m681.68 834.46c14.316 18.898 28.637 37.512 41.664 57.273h0.003906c1.5664 6.2891 0.023438 12.945-4.1523 17.898-2.4336 2.8633-11.168 2.7188-16.035 1.1445h-0.003906c-9.7891-3.0508-18.113-9.5938-23.395-18.387-5.2812-8.7891-7.1445-19.215-5.2383-29.293v-25.773z"/>
 <path d="m531.77 646.03c7.1602 3.4375 15.176 4.582 18.469 9.1641h0.003906c11.906 16.184 22.766 33.113 32.5 50.688 2.7188 5.0117 1.8633 16.754-1.7188 19.043-6.5859 3.7539-14.488 4.4336-21.621 1.8594-26.488-11.883-39.23-47.105-27.633-80.754zm41.664 66.008-29.781-42.953c-4.7227 24.914 4.2969 39.23 29.785 42.953z"/>
 <path d="m517.89 510.87c19.188 20.477 35.078 35.652 48.68 52.547 4.4805 4.2734 6.8945 10.277 6.6289 16.461-0.26562 6.1875-3.1914 11.957-8.0234 15.832-4.832 3.8711-11.098 5.4727-17.195 4.3867-6.0977-1.082-11.43-4.7461-14.629-10.047-10.16-16.312-18.375-33.758-24.48-51.977-2.0078-5.7266 4.5781-14.461 9.0195-27.203zm3.8672 21.477c0 30.641 15.605 54.266 34.219 52.691 1.4297-18.043-5.0117-28.352-34.223-52.691z"/>
 <path d="m672.95 714.04c15.258 16.629 29.598 34.074 42.957 52.262 5.5859 8.1602 19.758 21.047 4.7266 31.355-15.035 10.309-27.633-2.2891-35.508-14.316h-0.003906c-13.418-19.094-20.07-42.125-18.898-65.434zm36.227 72.594 5.4414-4.4375-27.348-34.938-4.2969 3.293c7.5898 13.031 6.4453 32.215 26.777 36.082z"/>
 <path d="m648.61 832.31c-9.3281-8.3125-17.816-17.52-25.344-27.492-6.1836-11.219-10.988-23.141-14.316-35.508-0.64844-4.1758-0.64844-8.4258 0-12.602 5.0117 0 12.172-2.1484 14.316 0 15.809 15.52 30.68 31.965 44.531 49.254 8.0156 10.168-1.4336 22.195-19.188 26.348zm-16.895-52.406-4.582 4.1523c8.0195 10.594 4.8672 30.066 29.781 27.348z"/>
 <path d="m775.18 801.67c1.5273-3.25 3.6094-6.207 6.1562-8.7344 2.8984-1.3281 6.2852-1 8.875 0.85938 14.316 19.902 28.637 40.09 42.953 60.852 2.4336 3.5781 2.2891 13.316 0 14.316h0.003906c-5.207 2.5703-11.188 3.082-16.754 1.4336-23.48-5.8711-42.094-36.227-41.234-68.727zm42.953 57.273 5.2969-4.4375-28.637-39.23v-0.003906c-2.668 8.8281-1.7812 18.352 2.4727 26.535 4.2539 8.1875 11.535 14.387 20.293 17.277z"/>
 <path d="m794.37 908.77c25.059 3.4375 47.68 30.641 45.246 51.547 0 4.7266-3.293 12.602-6.0117 13.172-6.0312 1.2031-12.293 0.023438-17.469-3.293-17.031-15.574-25.191-38.605-21.766-61.426z"/>
 <path d="m729.36 680.39c14.316 16.465 28.637 32.789 42.953 49.539v0.003906c3.1914 3.4609 4.8906 8.0391 4.7266 12.742-1.9258 7.8398-4.5117 15.504-7.7305 22.91-6.8711-3.1484-16.324-4.4375-20.332-9.7344v-0.003907c-15.586-21.07-24.379-46.395-25.199-72.594zm16.609 30.926-7.1602 4.2969 20.047 36.801 8.7344-5.1562z"/>
 <path d="m780.62 896.6c-40.09 3.0078-59.277-27.348-49.398-76.172 25.348 12.746 51.547 52.262 49.398 76.172zm-37.512-50.969c0.71484 28.637 7.3008 36.941 28.637 36.367z"/>
 <path d="m516.45 758.14c-31.645 1.4336-61.281-33.359-52.547-60.566 3.1133-6.5391 8.5859-11.656 15.32-14.32 2.7188-1.0039 10.164 4.8672 12.887 9.1641 11.883 20.047 28.492 38.23 24.34 65.723zm-8.3047-14.316c-8.7344-15.605-17.324-31.355-25.914-46.965-8.7344 24.055-0.42969 38.801 25.914 46.246z"/>
 <path d="m559.55 771.32c21.133 13.129 37.418 32.781 46.391 55.984 0.58984 6.3906-2.1055 12.648-7.1602 16.609-6.1836 2.0742-12.961 1.3945-18.613-1.8633-21.762-12.168-27.777-32.359-20.617-70.73zm27.492 62.715 8.1602-6.0117-22.48-32.078-7.3008 5.0117z"/>
 <path d="m297.24 186.42c-3.7227 2.0039-10.023 8.3047-16.895 8.8789-14.316 1.0039-28.637-4.4375-27.922-21.332 0-6.7305 11.168-16.465 18.758-18.469 13.891-3.2969 25.773 9.4453 26.059 30.922z"/>
</svg>
